HIERARCHY
ROOT Hips
{
	OFFSET 0.000000 0.000000 0.000000
	CHANNELS 6 Xposition Yposition Zposition Zrotation Yrotation Xrotation 
	JOINT LHipJoint
	{
		OFFSET 0.000000 0.000000 0.000000
		CHANNELS 3 Zrotation Yrotation Xrotation
		JOINT LeftUpLeg
		{
			OFFSET 1.363060 -1.794630 0.839290
			CHANNELS 3 Zrotation Yrotation Xrotation
			JOINT LeftLeg
			{
				OFFSET 2.448110 -6.726130 0.000000
				CHANNELS 3 Zrotation Yrotation Xrotation
				JOINT LeftFoot
				{
					OFFSET 2.562200 -7.039590 0.000000
					CHANNELS 3 Zrotation Yrotation Xrotation
					JOINT LeftToeBase
					{
						OFFSET 0.157640 -0.433110 2.322550
						CHANNELS 3 Zrotation Yrotation Xrotation
						End Site
						{
							OFFSET 0.000000 0.000000 0.000000
						}
					}
				}
			}
		}
	}
	JOINT RHipJoint
	{
		OFFSET 0.000000 0.000000 0.000000
		CHANNELS 3 Zrotation Yrotation Xrotation
		JOINT RightUpLeg
		{
			OFFSET -1.305520 -1.794630 0.839290
			CHANNELS 3 Zrotation Yrotation Xrotation
			JOINT RightLeg
			{
				OFFSET -2.542530 -6.985550 0.000000
				CHANNELS 3 Zrotation Yrotation Xrotation
				JOINT RightFoot
				{
					OFFSET -2.568260 -7.056230 0.000000
					CHANNELS 3 Zrotation Yrotation Xrotation
					JOINT RightToeBase
					{
						OFFSET -0.164730 -0.452590 2.363150
						CHANNELS 3 Zrotation Yrotation Xrotation
						End Site
						{
							OFFSET 0.000000 0.000000 0.000000
						}
					}
				}
			}
		}
	}
	JOINT LowerBack
	{
		OFFSET 0.000000 0.000000 0.000000
		CHANNELS 3 Zrotation Yrotation Xrotation
		JOINT Spine
		{
			OFFSET 0.028270 2.035590 -0.193380
			CHANNELS 3 Zrotation Yrotation Xrotation
			JOINT Spine1
			{
				OFFSET 0.056720 2.048850 -0.042750
				CHANNELS 3 Zrotation Yrotation Xrotation
				JOINT Neck
				{
					OFFSET 0.000000 0.000000 0.000000
					CHANNELS 3 Zrotation Yrotation Xrotation
					JOINT Neck1
					{
						OFFSET -0.054170 1.746240 0.172020
						CHANNELS 3 Zrotation Yrotation Xrotation
						JOINT Head
						{
							OFFSET 0.104070 1.761360 -0.123970
							CHANNELS 3 Zrotation Yrotation Xrotation
							End Site
							{
								OFFSET 0.000000 0.000000 0.000000
							}
						}
					}
				}
				JOINT LeftShoulder
				{
					OFFSET 0.000000 0.000000 0.000000
					CHANNELS 3 Zrotation Yrotation Xrotation
					JOINT LeftArm
					{
						OFFSET 3.362410 1.200890 -0.311210
						CHANNELS 3 Zrotation Yrotation Xrotation
						JOINT LeftForeArm
						{
							OFFSET 4.983000 -0.000000 -0.000000
							CHANNELS 3 Zrotation Yrotation Xrotation
							JOINT LeftHand
							{
								OFFSET 3.483560 -0.000000 -0.000000
								CHANNELS 3 Zrotation Yrotation Xrotation
								JOINT LeftFingerBase
								{
									OFFSET 0.000000 0.000000 0.000000
									CHANNELS 3 Zrotation Yrotation Xrotation
									JOINT LeftHandIndex1
									{
										OFFSET 0.715260 -0.000000 -0.000000
										CHANNELS 3 Zrotation Yrotation Xrotation
										End Site
										{
											OFFSET 0.000000 0.000000 0.000000
										}
									}
								}
								JOINT LThumb
								{
									OFFSET 0.000000 0.000000 0.000000
									CHANNELS 3 Zrotation Yrotation Xrotation
									End Site
									{
										OFFSET 0.000000 0.000000 0.000000
									}
								}
							}
						}
					}
				}
				JOINT RightShoulder
				{
					OFFSET 0.000000 0.000000 0.000000
					CHANNELS 3 Zrotation Yrotation Xrotation
					JOINT RightArm
					{
						OFFSET -3.136600 1.374050 -0.404650
						CHANNELS 3 Zrotation Yrotation Xrotation
						JOINT RightForeArm
						{
							OFFSET -5.241900 -0.000000 -0.000000
							CHANNELS 3 Zrotation Yrotation Xrotation
							JOINT RightHand
							{
								OFFSET -3.444170 -0.000000 -0.000000
								CHANNELS 3 Zrotation Yrotation Xrotation
								JOINT RightFingerBase
								{
									OFFSET 0.000000 0.000000 0.000000
									CHANNELS 3 Zrotation Yrotation Xrotation
									JOINT RightHandIndex1
									{
										OFFSET -0.622530 -0.000000 -0.000000
										CHANNELS 3 Zrotation Yrotation Xrotation
										End Site
										{
											OFFSET 0.000000 0.000000 0.000000
										}
									}
								}
								JOINT RThumb
								{
									OFFSET 0.000000 0.000000 0.000000
									CHANNELS 3 Zrotation Yrotation Xrotation
									End Site
									{
										OFFSET 0.000000 0.000000 0.000000
									}
								}
							}
						}
					}
				}
			}
		}
	}
}
MOTION
Frames: 11
Frame Time: 0.008333
-14.585190 17.979338 10.069621 3.254959 -14.425447 3.788114 -0.908440 1.854050 1.596067 -15.179651 -21.096166 -8.716697 4.355809 12.440792 40.259724 -0.230708 -19.445188 3.982365 1.654800 -8.106700 -23.038700 -0.802890 -1.873641 0.959838 23.112267 -0.412908 -22.774161 -1.823241 -8.227995 24.557150 1.899831 -12.989726 -3.541672 -0.313400 -3.598800 9.950700 3.692162 5.318886 10.147175 -1.096777 7.534206 4.999147 -6.996764 4.151680 -1.560023 -7.107198 12.419622 -12.693013 2.323280 20.481970 40.193302 6.006700 6.247900 19.517800 -6.000849 -1.387485 -1.319614 -81.740300 9.025206 15.154627 19.311858 -27.204201 -5.263364 -0.740380 -2.116356 2.462152 19.881848 25.416154 9.844300 -7.125000 0.000000 0.000000 -11.150000 58.782800 -3.786500 4.868388 -0.005216 -1.098640 81.762280 -0.958267 25.998661 -18.110458 26.264358 -4.296547 0.256808 -0.077688 2.188046 -13.896347 7.064595 -1.792200 7.125000 0.000000 0.000000 9.232600 -22.658900 5.026800 
-14.560150 17.975281 10.021819 3.166419 -14.267600 3.771057 -0.887825 1.879772 1.635332 -15.093062 -20.942404 -8.189093 4.395345 12.459995 40.401554 -0.353846 -20.277900 5.103624 1.768100 -8.365400 -23.829700 -0.809945 -1.881785 0.953305 23.175513 -0.469575 -22.931252 -1.822226 -8.232903 24.553451 1.905163 -13.030773 -3.439450 -0.329500 -3.689300 10.204200 3.748605 5.414591 10.096912 -1.172360 7.669458 4.885077 -7.167193 4.215175 -1.663312 -6.781118 12.464411 -12.472075 2.441763 20.413964 40.266854 5.986600 6.297400 19.531400 -6.009036 -1.372179 -1.315972 -81.620627 9.374689 14.765765 19.022184 -26.847702 -5.100593 -0.739389 -2.119773 2.920463 19.489499 25.586022 9.690400 -7.125000 0.000000 0.000000 -11.695900 58.867700 -3.999000 4.861897 -0.011061 -1.105721 82.123144 -1.384360 25.030413 -18.601354 26.911076 -4.529785 0.251773 -0.071529 2.389004 -13.741394 6.838000 -1.713500 7.125000 0.000000 0.000000 9.360300 -22.901500 5.045500 
-14.533825 17.963602 9.971839 3.122164 -14.131476 3.697251 -0.878792 1.904767 1.685631 -15.119910 -20.607984 -7.556288 4.399351 12.438536 40.376397 -0.463928 -21.327926 5.470148 2.227400 -9.324500 -26.815900 -0.816432 -1.887132 0.944748 23.151478 -0.415736 -23.126421 -1.852925 -8.311792 24.771604 1.909460 -13.064995 -3.510187 -0.348900 -3.795300 10.501600 3.679315 5.448024 10.033039 -1.192499 7.705286 4.880510 -7.171755 4.233453 -1.650463 -6.624075 12.560460 -12.520224 2.436023 20.540840 40.315448 5.986700 6.362600 19.592200 -6.015196 -1.366388 -1.317358 -81.727925 9.609146 14.230703 18.861289 -26.649086 -5.002612 -0.743674 -2.168597 3.290317 19.261820 26.519053 9.872600 -7.125000 0.000000 0.000000 -12.538300 59.792400 -4.570800 4.861656 -0.027623 -1.110092 82.144480 -1.467949 24.909425 -18.906852 27.304896 -4.674480 0.264079 -0.072965 1.905009 -14.282775 7.082641 -1.847700 7.125000 0.000000 0.000000 8.945500 -22.630800 4.872500 
-14.504134 17.947371 9.919980 3.175833 -13.983754 3.614952 -0.871486 1.926640 1.735457 -15.266096 -20.207144 -6.939901 4.399601 12.411923 40.334649 -0.592055 -22.388973 5.882823 2.452100 -9.750400 -28.172100 -0.824244 -1.892246 0.934850 22.999298 -0.314586 -23.304794 -1.868181 -8.359174 24.885584 1.930712 -13.197695 -3.486365 -0.381200 -3.965200 10.978700 3.498125 5.443195 9.938597 -1.178356 7.676626 4.942838 -7.060379 4.221748 -1.561382 -6.739907 12.657604 -12.651674 2.295255 20.756589 40.125758 5.966300 6.423100 19.492200 -6.032677 -1.366087 -1.319321 -82.013463 9.650295 13.493022 18.631005 -26.347412 -4.868901 -0.763355 -2.164329 3.665207 19.234883 26.442342 9.837700 -7.125000 0.000000 0.000000 -12.515100 59.711500 -4.537900 4.862061 -0.045503 -1.115489 81.922496 -1.433052 25.154250 -19.290608 27.798909 -4.859703 0.281837 -0.080986 1.339088 -15.053987 7.699111 -2.122500 7.125000 0.000000 0.000000 8.348400 -21.960700 4.669200 
-14.475532 17.942324 9.868219 3.136110 -13.769321 3.571063 -0.853787 1.954046 1.777910 -15.268336 -20.018302 -6.325389 4.375118 12.364133 40.229562 -0.751632 -23.139872 7.472115 2.163900 -9.199500 -26.421500 -0.833932 -1.899515 0.926469 22.972672 -0.281024 -23.463678 -1.879083 -8.396190 24.974257 1.959591 -13.366078 -3.518903 -0.428800 -4.202500 11.647100 3.442177 5.431840 9.874925 -1.165430 7.655963 4.950846 -7.033754 4.209898 -1.544756 -6.872360 12.692337 -12.669242 2.218234 20.835954 39.871709 5.941100 6.453300 19.315300 -6.055991 -1.358366 -1.320228 -82.301040 9.708663 12.502502 18.334898 -25.955621 -4.702141 -0.776797 -2.128156 4.337188 18.953822 25.873206 9.503000 -7.125000 0.000000 0.000000 -12.475400 59.052600 -4.326100 4.863494 -0.055434 -1.121322 81.841419 -1.462215 25.076633 -19.621681 28.223532 -5.026515 0.279393 -0.075142 1.174673 -14.912963 7.577948 -2.067800 7.125000 0.000000 0.000000 8.457000 -22.095600 4.705000 
-14.445841 17.941532 9.815963 3.134375 -13.583537 3.515425 -0.833055 1.983138 1.814365 -15.305464 -19.920090 -5.716686 4.336072 12.305332 40.085007 -0.888843 -23.615400 9.439222 1.881400 -8.614500 -24.596700 -0.840559 -1.906469 0.918512 22.930118 -0.407905 -23.650322 -1.882441 -8.413487 25.005340 1.957003 -13.362924 -3.482595 -0.457200 -4.337400 12.028000 3.393992 5.460652 9.762058 -1.214424 7.691119 4.948019 -7.088037 4.227692 -1.490998 -6.888143 12.682632 -12.744212 2.492705 20.777677 39.947748 6.068000 6.459700 19.338500 -6.073095 -1.337662 -1.319546 -82.388634 9.809803 11.840332 18.073251 -25.613686 -4.557239 -0.788895 -2.115132 4.918669 18.716895 25.758565 9.340000 -7.125000 0.000000 0.000000 -12.670900 58.876900 -4.341700 4.869823 -0.052279 -1.120190 81.967607 -1.418534 24.588844 -19.801445 28.457483 -5.118930 0.270922 -0.070667 1.153355 -14.506345 7.440966 -1.971900 7.125000 0.000000 0.000000 8.763700 -22.256200 4.847100 
-14.414171 17.937177 9.759353 3.065962 -13.516808 3.477666 -0.806571 2.009538 1.855285 -15.241768 -19.632505 -5.192370 4.283453 12.237781 39.895808 -0.991877 -23.951375 11.569771 1.533800 -7.818800 -22.165200 -0.851832 -1.913258 0.908362 22.963778 -0.420548 -23.784466 -1.872856 -8.398257 24.938587 1.962777 -13.412280 -3.283328 -0.457700 -4.340100 12.035400 3.421516 5.520056 9.647248 -1.249814 7.774664 4.941693 -7.168099 4.270897 -1.423984 -6.860053 12.723760 -12.847820 2.833387 20.801860 40.186757 6.246700 6.492800 19.465800 -6.084229 -1.315957 -1.320437 -82.453282 9.960617 11.428534 17.852688 -25.323725 -4.439488 -0.807218 -2.085179 5.231647 18.756983 25.293401 9.216200 -7.125000 0.000000 0.000000 -12.336400 58.401000 -4.083500 4.874775 -0.051245 -1.117568 82.061342 -1.328009 24.164816 -19.954830 28.655593 -5.193836 0.276263 -0.079323 0.840249 -14.717643 7.964997 -2.143500 7.125000 0.000000 0.000000 8.587300 -21.702300 4.856800 
-14.380917 17.933812 9.703930 3.022010 -13.453812 3.399921 -0.784777 2.037603 1.898056 -15.225760 -19.354051 -4.598648 4.214015 12.153732 39.637059 -1.032224 -24.025705 13.483771 1.118400 -6.718200 -18.883200 -0.864225 -1.922716 0.898845 22.952476 -0.400585 -23.849718 -1.862164 -8.381163 24.865172 1.971338 -13.478619 -3.087552 -0.467500 -4.385400 12.163600 3.391533 5.553269 9.573609 -1.241918 7.815153 4.933732 -7.156869 4.289812 -1.408787 -6.861720 12.808566 -12.844538 2.896399 20.925040 40.188237 6.288200 6.551900 19.441200 -6.092498 -1.302168 -1.325800 -82.654093 10.203724 11.066935 17.709168 -25.133202 -4.362035 -0.817976 -2.077538 5.353599 18.790639 25.122268 9.182700 -7.125000 0.000000 0.000000 -12.193900 58.234000 -3.986300 4.875390 -0.063286 -1.118339 81.991434 -1.235631 24.094095 -20.094911 28.831363 -5.263229 0.281773 -0.080675 0.425456 -14.919777 8.179915 -2.233000 7.125000 0.000000 0.000000 8.430700 -21.470400 4.811100 
-14.344793 17.933812 9.653159 3.078516 -13.368102 3.315281 -0.769032 2.068352 1.937360 -15.372964 -19.179865 -3.919759 4.121216 12.041735 39.274190 -1.029820 -23.942365 15.327731 0.703800 -5.362300 -14.945000 -0.872813 -1.933096 0.890539 22.831507 -0.556288 -24.000429 -1.854758 -8.369248 24.803164 1.949592 -13.389963 -2.784691 -0.469500 -4.394900 12.190300 3.270206 5.554761 9.419949 -1.264399 7.803915 4.927067 -7.126039 4.282889 -1.354634 -6.919671 12.877626 -12.932541 3.074447 21.043077 40.311741 6.408300 6.596000 19.497100 -6.107907 -1.288243 -1.328524 -82.816868 10.321528 10.691367 17.480587 -24.825039 -4.237636 -0.832519 -2.093138 5.463134 18.787411 25.349263 9.259800 -7.125000 0.000000 0.000000 -12.324700 58.477700 -4.102300 4.876417 -0.069096 -1.120802 81.878204 -1.275983 24.330638 -20.340974 29.136520 -5.391449 0.284128 -0.070567 0.074833 -14.989918 7.882786 -2.161700 7.125000 0.000000 0.000000 8.388400 -21.779800 4.726900 
-14.306987 17.932724 9.603377 3.244074 -13.202815 3.207111 -0.755591 2.098266 1.973081 -15.654938 -19.030510 -3.209715 4.009424 11.905539 38.824117 -0.983448 -23.708965 17.237240 0.390100 -4.010500 -11.106100 -0.876977 -1.943180 0.884927 22.553837 -0.672509 -24.140855 -1.843742 -8.358001 24.734093 1.953137 -13.436655 -2.606936 -0.529500 -4.662900 12.949500 3.081752 5.549694 9.303641 -1.347828 7.778605 4.881002 -7.148532 4.267972 -1.369023 -6.764172 12.975163 -12.978553 3.256655 21.166962 40.600590 6.513500 6.656700 19.687000 -6.119194 -1.278788 -1.327747 -82.925236 10.478065 10.140115 17.295750 -24.576220 -4.138641 -0.818798 -2.096146 5.763072 18.313488 25.382741 9.019300 -7.125000 0.000000 0.000000 -12.882800 58.405000 -4.269400 4.874026 -0.076565 -1.125312 81.932318 -1.464149 24.339748 -20.660985 29.527523 -5.557202 0.289694 -0.064572 -0.176721 -15.252444 7.750404 -2.163600 7.125000 0.000000 0.000000 8.198900 -21.909100 4.593600 
-14.268983 17.930349 9.547163 3.308697 -13.064138 3.057209 -0.736411 2.132058 2.010448 -15.819016 -18.829683 -2.487512 3.877327 11.752663 38.294610 -0.813939 -22.906726 19.437152 0.118100 -2.215800 -6.102400 -0.885555 -1.954226 0.879480 22.358533 -0.535238 -24.142697 -1.835851 -8.356075 24.696724 2.002767 -13.727832 -2.549165 -0.572400 -4.845000 13.467000 2.973451 5.584442 9.350628 -1.401286 7.815177 4.826425 -7.192713 4.281289 -1.478833 -6.538342 13.057561 -12.902673 3.332497 21.234951 40.755004 6.530400 6.715700 19.787000 -6.120904 -1.270121 -1.329420 -82.997727 10.768687 9.869282 17.203211 -24.455591 -4.090738 -0.814458 -2.093381 5.984362 18.107484 25.348192 8.899000 -7.125000 0.000000 0.000000 -13.096400 58.321800 -4.315400 4.870377 -0.086834 -1.129527 82.097743 -1.612389 23.773381 -20.938844 29.870187 -5.703022 0.283499 -0.065122 -0.137644 -14.981195 7.798281 -2.136200 7.125000 0.000000 0.000000 8.398300 -21.871400 4.714900 
